{
	"asset":{
		"generator":"Khronos glTF Blender I/O v5.2.39",
		"version":"2.0"
	},
	"scene":0,
	"scenes":[
		{
			"name":"Scene",
			"nodes":[
				30
			]
		}
	],
	"nodes":[
		{
			"mesh":0,
			"name":"body"
		},
		{
			"mesh":1,
			"name":"body-convcolonly"
		},
		{
			"mesh":2,
			"name":"cage-convcolonly"
		},
		{
			"mesh":3,
			"name":"hood-convcolonly"
		},
		{
			"mesh":4,
			"name":"turret-convcolonly"
		},
		{
			"mesh":5,
			"name":"wheel_fl-convcolonly"
		},
		{
			"mesh":6,
			"name":"wheel_fr-convcolonly"
		},
		{
			"mesh":7,
			"name":"wheel_rl-convcolonly"
		},
		{
			"mesh":8,
			"name":"wheel_rr-convcolonly"
		},
		{
			"children":[
				1,
				2,
				3,
				4,
				5,
				6,
				7,
				8
			],
			"name":"collision"
		},
		{
			"mesh":9,
			"name":"greebles"
		},
		{
			"mesh":10,
			"name":"interior"
		},
		{
			"mesh":11,
			"name":"roll_cage"
		},
		{
			"mesh":12,
			"name":"steering_wheel_rim"
		},
		{
			"children":[
				13
			],
			"name":"steering_wheel_pivot",
			"translation":[
				-0.36000001430511475,
				1.1399999856948853,
				-0.4000000059604645
			]
		},
		{
			"mesh":13,
			"name":"turret_base"
		},
		{
			"mesh":14,
			"name":"turret_gun"
		},
		{
			"mesh":15,
			"name":"turret_shield"
		},
		{
			"children":[
				16,
				17
			],
			"name":"turret_pitch",
			"translation":[
				0,
				0.5199999809265137,
				-0.1499999761581421
			]
		},
		{
			"children":[
				15,
				18
			],
			"name":"turret_yaw",
			"translation":[
				0,
				1.2400000095367432,
				0.949999988079071
			]
		},
		{
			"mesh":16,
			"name":"wheel_fl"
		},
		{
			"children":[
				20
			],
			"name":"wheel_fl_spin"
		},
		{
			"children":[
				21
			],
			"name":"wheel_fl_steer",
			"translation":[
				-0.7599999904632568,
				0.41999998688697815,
				-1.2000000476837158
			]
		},
		{
			"mesh":17,
			"name":"wheel_fr"
		},
		{
			"children":[
				23
			],
			"name":"wheel_fr_spin"
		},
		{
			"children":[
				24
			],
			"name":"wheel_fr_steer",
			"translation":[
				0.7599999904632568,
				0.41999998688697815,
				-1.2000000476837158
			]
		},
		{
			"mesh":18,
			"name":"wheel_rl"
		},
		{
			"children":[
				26
			],
			"name":"wheel_rl_spin",
			"translation":[
				-0.7799999713897705,
				0.41999998688697815,
				1.149999976158142
			]
		},
		{
			"mesh":19,
			"name":"wheel_rr"
		},
		{
			"children":[
				28
			],
			"name":"wheel_rr_spin",
			"translation":[
				0.7799999713897705,
				0.41999998688697815,
				1.149999976158142
			]
		},
		{
			"children":[
				0,
				9,
				10,
				11,
				12,
				14,
				19,
				22,
				25,
				27,
				29
			],
			"name":"jeep_turret_root"
		}
	],
	"materials":[
		{
			"doubleSided":true,
			"name":"mat_jeep_turret",
			"normalTexture":{
				"index":0
			},
			"pbrMetallicRoughness":{
				"baseColorTexture":{
					"index":1
				},
				"metallicRoughnessTexture":{
					"index":2
				}
			}
		},
		{
			"alphaMode":"BLEND",
			"doubleSided":true,
			"name":"mat_jeep_turret_glass",
			"pbrMetallicRoughness":{
				"baseColorFactor":[
					0.41999998688697815,
					0.5,
					0.47999998927116394,
					0.30000001192092896
				],
				"metallicFactor":0,
				"roughnessFactor":0.07999999821186066
			}
		},
		{
			"doubleSided":true,
			"emissiveFactor":[
				1,
				0.9100000262260437,
				0.7400000095367432
			],
			"name":"mat_jeep_turret_lights",
			"pbrMetallicRoughness":{
				"baseColorFactor":[
					1,
					0.9100000262260437,
					0.7400000095367432,
					1
				],
				"metallicFactor":0,
				"roughnessFactor":0.2199999988079071
			}
		}
	],
	"meshes":[
		{
			"name":"body",
			"primitives":[
				{
					"attributes":{
						"POSITION":0,
						"NORMAL":1,
						"TEXCOORD_0":2
					},
					"indices":3,
					"material":0
				},
				{
					"attributes":{
						"POSITION":4,
						"NORMAL":5,
						"TEXCOORD_0":6
					},
					"indices":7,
					"material":1
				},
				{
					"attributes":{
						"POSITION":8,
						"NORMAL":9,
						"TEXCOORD_0":10
					},
					"indices":11,
					"material":2
				}
			]
		},
		{
			"name":"body-convcolonly",
			"primitives":[
				{
					"attributes":{
						"POSITION":12,
						"NORMAL":13
					},
					"indices":14
				}
			]
		},
		{
			"name":"cage-convcolonly",
			"primitives":[
				{
					"attributes":{
						"POSITION":15,
						"NORMAL":16
					},
					"indices":14
				}
			]
		},
		{
			"name":"hood-convcolonly",
			"primitives":[
				{
					"attributes":{
						"POSITION":17,
						"NORMAL":18
					},
					"indices":14
				}
			]
		},
		{
			"name":"turret-convcolonly",
			"primitives":[
				{
					"attributes":{
						"POSITION":19,
						"NORMAL":20
					},
					"indices":14
				}
			]
		},
		{
			"name":"wheel_fl-convcolonly",
			"primitives":[
				{
					"attributes":{
						"POSITION":21,
						"NORMAL":22
					},
					"indices":14
				}
			]
		},
		{
			"name":"wheel_fr-convcolonly",
			"primitives":[
				{
					"attributes":{
						"POSITION":23,
						"NORMAL":24
					},
					"indices":14
				}
			]
		},
		{
			"name":"wheel_rl-convcolonly",
			"primitives":[
				{
					"attributes":{
						"POSITION":25,
						"NORMAL":26
					},
					"indices":14
				}
			]
		},
		{
			"name":"wheel_rr-convcolonly",
			"primitives":[
				{
					"attributes":{
						"POSITION":27,
						"NORMAL":28
					},
					"indices":14
				}
			]
		},
		{
			"name":"greebles",
			"primitives":[
				{
					"attributes":{
						"POSITION":29,
						"NORMAL":30,
						"TEXCOORD_0":31
					},
					"indices":32,
					"material":0
				},
				{
					"attributes":{
						"POSITION":33,
						"NORMAL":34,
						"TEXCOORD_0":35
					},
					"indices":36,
					"material":2
				}
			]
		},
		{
			"name":"interior",
			"primitives":[
				{
					"attributes":{
						"POSITION":37,
						"NORMAL":38,
						"TEXCOORD_0":39
					},
					"indices":40,
					"material":0
				},
				{
					"attributes":{
						"POSITION":41,
						"NORMAL":42,
						"TEXCOORD_0":43
					},
					"indices":44,
					"material":1
				}
			]
		},
		{
			"name":"roll_cage",
			"primitives":[
				{
					"attributes":{
						"POSITION":45,
						"NORMAL":46,
						"TEXCOORD_0":47
					},
					"indices":48,
					"material":0
				}
			]
		},
		{
			"name":"steering_wheel_rim",
			"primitives":[
				{
					"attributes":{
						"POSITION":49,
						"NORMAL":50,
						"TEXCOORD_0":51
					},
					"indices":52,
					"material":0
				}
			]
		},
		{
			"name":"turret_base",
			"primitives":[
				{
					"attributes":{
						"POSITION":53,
						"NORMAL":54,
						"TEXCOORD_0":55
					},
					"indices":56,
					"material":0
				}
			]
		},
		{
			"name":"turret_gun",
			"primitives":[
				{
					"attributes":{
						"POSITION":57,
						"NORMAL":58,
						"TEXCOORD_0":59
					},
					"indices":60,
					"material":0
				}
			]
		},
		{
			"name":"turret_shield",
			"primitives":[
				{
					"attributes":{
						"POSITION":61,
						"NORMAL":62,
						"TEXCOORD_0":63
					},
					"indices":64,
					"material":0
				}
			]
		},
		{
			"name":"wheel_fl",
			"primitives":[
				{
					"attributes":{
						"POSITION":65,
						"NORMAL":66,
						"TEXCOORD_0":67
					},
					"indices":68,
					"material":0
				}
			]
		},
		{
			"name":"wheel_fr",
			"primitives":[
				{
					"attributes":{
						"POSITION":69,
						"NORMAL":70,
						"TEXCOORD_0":71
					},
					"indices":72,
					"material":0
				}
			]
		},
		{
			"name":"wheel_rl",
			"primitives":[
				{
					"attributes":{
						"POSITION":73,
						"NORMAL":74,
						"TEXCOORD_0":75
					},
					"indices":76,
					"material":0
				}
			]
		},
		{
			"name":"wheel_rr",
			"primitives":[
				{
					"attributes":{
						"POSITION":77,
						"NORMAL":78,
						"TEXCOORD_0":79
					},
					"indices":80,
					"material":0
				}
			]
		}
	],
	"textures":[
		{
			"sampler":0,
			"source":0
		},
		{
			"sampler":0,
			"source":1
		},
		{
			"sampler":0,
			"source":2
		}
	],
	"images":[
		{
			"mimeType":"image/png",
			"name":"t_jeep_turret_normal",
			"uri":"t_jeep_turret_normal.png"
		},
		{
			"mimeType":"image/png",
			"name":"t_jeep_turret_basecolor",
			"uri":"t_jeep_turret_basecolor.png"
		},
		{
			"mimeType":"image/png",
			"name":"t_jeep_turret_metallic_roughness",
			"uri":"t_jeep_turret_metallic_roughness.png"
		}
	],
	"accessors":[
		{
			"bufferView":0,
			"componentType":5126,
			"count":10290,
			"max":[
				0.9494999647140503,
				1.5329090356826782,
				1.7531307935714722
			],
			"min":[
				-0.9494999647140503,
				0.3400000035762787,
				-1.9169999361038208
			],
			"type":"VEC3"
		},
		{
			"bufferView":1,
			"componentType":5126,
			"count":10290,
			"type":"VEC3"
		},
		{
			"bufferView":2,
			"componentType":5126,
			"count":10290,
			"type":"VEC2"
		},
		{
			"bufferView":3,
			"componentType":5123,
			"count":15144,
			"type":"SCALAR"
		},
		{
			"bufferView":4,
			"componentType":5126,
			"count":8,
			"max":[
				0.6139999628067017,
				1.483170986175537,
				-0.2738756835460663
			],
			"min":[
				-0.6139999628067017,
				1.0945804119110107,
				-0.6052849888801575
			],
			"type":"VEC3"
		},
		{
			"bufferView":5,
			"componentType":5126,
			"count":8,
			"type":"VEC3"
		},
		{
			"bufferView":6,
			"componentType":5126,
			"count":8,
			"type":"VEC2"
		},
		{
			"bufferView":7,
			"componentType":5123,
			"count":12,
			"type":"SCALAR"
		},
		{
			"bufferView":8,
			"componentType":5126,
			"count":108,
			"max":[
				0.5325148105621338,
				0.9092707633972168,
				-1.725000023841858
			],
			"min":[
				-0.5325148105621338,
				0.7270521521568298,
				-1.7450000047683716
			],
			"type":"VEC3"
		},
		{
			"bufferView":9,
			"componentType":5126,
			"count":108,
			"type":"VEC3"
		},
		{
			"bufferView":10,
			"componentType":5126,
			"count":108,
			"type":"VEC2"
		},
		{
			"bufferView":11,
			"componentType":5123,
			"count":192,
			"type":"SCALAR"
		},
		{
			"bufferView":12,
			"componentType":5126,
			"count":24,
			"max":[
				0.7300000190734863,
				1.1100000143051147,
				1.6200000047683716
			],
			"min":[
				-0.7300000190734863,
				0.49000000953674316,
				-0.7800000905990601
			],
			"type":"VEC3"
		},
		{
			"bufferView":13,
			"componentType":5126,
			"count":24,
			"type":"VEC3"
		},
		{
			"bufferView":14,
			"componentType":5123,
			"count":36,
			"type":"SCALAR"
		},
		{
			"bufferView":15,
			"componentType":5126,
			"count":24,
			"max":[
				0.6600000262260437,
				1.7100000381469727,
				0.6500000357627869
			],
			"min":[
				-0.6600000262260437,
				1.0699999332427979,
				-0.45000001788139343
			],
			"type":"VEC3"
		},
		{
			"bufferView":16,
			"componentType":5126,
			"count":24,
			"type":"VEC3"
		},
		{
			"bufferView":17,
			"componentType":5126,
			"count":24,
			"max":[
				0.699999988079071,
				1.059999942779541,
				-0.550000011920929
			],
			"min":[
				-0.699999988079071,
				0.5400000214576721,
				-1.690000057220459
			],
			"type":"VEC3"
		},
		{
			"bufferView":18,
			"componentType":5126,
			"count":24,
			"type":"VEC3"
		},
		{
			"bufferView":19,
			"componentType":5126,
			"count":24,
			"max":[
				0.3499999940395355,
				2.1399998664855957,
				1.3299999237060547
			],
			"min":[
				-0.3499999940395355,
				1.1799999475479126,
				0.4300000071525574
			],
			"type":"VEC3"
		},
		{
			"bufferView":20,
			"componentType":5126,
			"count":24,
			"type":"VEC3"
		},
		{
			"bufferView":21,
			"componentType":5126,
			"count":24,
			"max":[
				-0.5899999737739563,
				0.8399999737739563,
				-0.7800000905990601
			],
			"min":[
				-0.9300000071525574,
				0,
				-1.6200000047683716
			],
			"type":"VEC3"
		},
		{
			"bufferView":22,
			"componentType":5126,
			"count":24,
			"type":"VEC3"
		},
		{
			"bufferView":23,
			"componentType":5126,
			"count":24,
			"max":[
				0.9300000071525574,
				0.8399999737739563,
				-0.7800000905990601
			],
			"min":[
				0.5899999737739563,
				0,
				-1.6200000047683716
			],
			"type":"VEC3"
		},
		{
			"bufferView":24,
			"componentType":5126,
			"count":24,
			"type":"VEC3"
		},
		{
			"bufferView":25,
			"componentType":5126,
			"count":24,
			"max":[
				-0.60999995470047,
				0.8399999737739563,
				1.5699999332427979
			],
			"min":[
				-0.949999988079071,
				0,
				0.7300000190734863
			],
			"type":"VEC3"
		},
		{
			"bufferView":26,
			"componentType":5126,
			"count":24,
			"type":"VEC3"
		},
		{
			"bufferView":27,
			"componentType":5126,
			"count":24,
			"max":[
				0.949999988079071,
				0.8399999737739563,
				1.5699999332427979
			],
			"min":[
				0.60999995470047,
				0,
				0.7300000190734863
			],
			"type":"VEC3"
		},
		{
			"bufferView":28,
			"componentType":5126,
			"count":24,
			"type":"VEC3"
		},
		{
			"bufferView":29,
			"componentType":5126,
			"count":1038,
			"max":[
				0.8849999904632568,
				2.080461025238037,
				1.8899999856948853
			],
			"min":[
				-0.8999999761581421,
				0.27720320224761963,
				-1.8000000715255737
			],
			"type":"VEC3"
		},
		{
			"bufferView":30,
			"componentType":5126,
			"count":1038,
			"type":"VEC3"
		},
		{
			"bufferView":31,
			"componentType":5126,
			"count":1038,
			"type":"VEC2"
		},
		{
			"bufferView":32,
			"componentType":5123,
			"count":1728,
			"type":"SCALAR"
		},
		{
			"bufferView":33,
			"componentType":5126,
			"count":48,
			"max":[
				0.6200000047683716,
				0.949999988079071,
				1.6299999952316284
			],
			"min":[
				-0.6200000047683716,
				0.8499999642372131,
				1.5700000524520874
			],
			"type":"VEC3"
		},
		{
			"bufferView":34,
			"componentType":5126,
			"count":48,
			"type":"VEC3"
		},
		{
			"bufferView":35,
			"componentType":5126,
			"count":48,
			"type":"VEC2"
		},
		{
			"bufferView":36,
			"componentType":5123,
			"count":72,
			"type":"SCALAR"
		},
		{
			"bufferView":37,
			"componentType":5126,
			"count":3260,
			"max":[
				0.6767354011535645,
				1.4100000858306885,
				1.5399999618530273
			],
			"min":[
				-0.6767354011535645,
				0.550000011920929,
				-0.7190982103347778
			],
			"type":"VEC3"
		},
		{
			"bufferView":38,
			"componentType":5126,
			"count":3260,
			"type":"VEC3"
		},
		{
			"bufferView":39,
			"componentType":5126,
			"count":3260,
			"type":"VEC2"
		},
		{
			"bufferView":40,
			"componentType":5123,
			"count":5598,
			"type":"SCALAR"
		},
		{
			"bufferView":41,
			"componentType":5126,
			"count":54,
			"max":[
				0.09218263626098633,
				0.99326092004776,
				-0.2849999964237213
			],
			"min":[
				-0.4158180356025696,
				0.8833208680152893,
				-0.29499998688697815
			],
			"type":"VEC3"
		},
		{
			"bufferView":42,
			"componentType":5126,
			"count":54,
			"type":"VEC3"
		},
		{
			"bufferView":43,
			"componentType":5126,
			"count":54,
			"type":"VEC2"
		},
		{
			"bufferView":44,
			"componentType":5123,
			"count":126,
			"type":"SCALAR"
		},
		{
			"bufferView":45,
			"componentType":5126,
			"count":1270,
			"max":[
				0.6959670782089233,
				1.6649999618530273,
				1.5283628702163696
			],
			"min":[
				-0.6959670782089233,
				1.0750360488891602,
				-0.6117023825645447
			],
			"type":"VEC3"
		},
		{
			"bufferView":46,
			"componentType":5126,
			"count":1270,
			"type":"VEC3"
		},
		{
			"bufferView":47,
			"componentType":5126,
			"count":1270,
			"type":"VEC2"
		},
		{
			"bufferView":48,
			"componentType":5123,
			"count":3144,
			"type":"SCALAR"
		},
		{
			"bufferView":49,
			"componentType":5126,
			"count":454,
			"max":[
				0.18293029069900513,
				0.17113733291625977,
				0.07805845141410828
			],
			"min":[
				-0.18363475799560547,
				-0.171137273311615,
				-0.08072414994239807
			],
			"type":"VEC3"
		},
		{
			"bufferView":50,
			"componentType":5126,
			"count":454,
			"type":"VEC3"
		},
		{
			"bufferView":51,
			"componentType":5126,
			"count":454,
			"type":"VEC2"
		},
		{
			"bufferView":52,
			"componentType":5123,
			"count":720,
			"type":"SCALAR"
		},
		{
			"bufferView":53,
			"componentType":5126,
			"count":1278,
			"max":[
				0.3500000238418579,
				0.6000000238418579,
				0.30250006914138794
			],
			"min":[
				-0.30250000953674316,
				-0.6800000071525574,
				-0.3024999499320984
			],
			"type":"VEC3"
		},
		{
			"bufferView":54,
			"componentType":5126,
			"count":1278,
			"type":"VEC3"
		},
		{
			"bufferView":55,
			"componentType":5126,
			"count":1278,
			"type":"VEC2"
		},
		{
			"bufferView":56,
			"componentType":5123,
			"count":2808,
			"type":"SCALAR"
		},
		{
			"bufferView":57,
			"componentType":5126,
			"count":2120,
			"max":[
				0.2800000011920929,
				0.14499998092651367,
				0.5244320034980774
			],
			"min":[
				-0.17560501396656036,
				-0.24000000953674316,
				-1.0800000429153442
			],
			"type":"VEC3"
		},
		{
			"bufferView":58,
			"componentType":5126,
			"count":2120,
			"type":"VEC3"
		},
		{
			"bufferView":59,
			"componentType":5126,
			"count":2120,
			"type":"VEC2"
		},
		{
			"bufferView":60,
			"componentType":5123,
			"count":4332,
			"type":"SCALAR"
		},
		{
			"bufferView":61,
			"componentType":5126,
			"count":576,
			"max":[
				0.4164518117904663,
				0.38000011444091797,
				-0.10580730438232422
			],
			"min":[
				-0.4164518117904663,
				-0.25999999046325684,
				-0.29750001430511475
			],
			"type":"VEC3"
		},
		{
			"bufferView":62,
			"componentType":5126,
			"count":576,
			"type":"VEC3"
		},
		{
			"bufferView":63,
			"componentType":5126,
			"count":576,
			"type":"VEC2"
		},
		{
			"bufferView":64,
			"componentType":5123,
			"count":924,
			"type":"SCALAR"
		},
		{
			"bufferView":65,
			"componentType":5126,
			"count":1116,
			"max":[
				0.16500002145767212,
				0.41733023524284363,
				0.417330265045166
			],
			"min":[
				-0.16500002145767212,
				-0.41733020544052124,
				-0.41733014583587646
			],
			"type":"VEC3"
		},
		{
			"bufferView":66,
			"componentType":5126,
			"count":1116,
			"type":"VEC3"
		},
		{
			"bufferView":67,
			"componentType":5126,
			"count":1116,
			"type":"VEC2"
		},
		{
			"bufferView":68,
			"componentType":5123,
			"count":2268,
			"type":"SCALAR"
		},
		{
			"bufferView":69,
			"componentType":5126,
			"count":1116,
			"max":[
				0.16500002145767212,
				0.41733023524284363,
				0.417330265045166
			],
			"min":[
				-0.16500002145767212,
				-0.41733020544052124,
				-0.41733014583587646
			],
			"type":"VEC3"
		},
		{
			"bufferView":70,
			"componentType":5126,
			"count":1116,
			"type":"VEC3"
		},
		{
			"bufferView":71,
			"componentType":5126,
			"count":1116,
			"type":"VEC2"
		},
		{
			"bufferView":72,
			"componentType":5123,
			"count":2268,
			"type":"SCALAR"
		},
		{
			"bufferView":73,
			"componentType":5126,
			"count":1116,
			"max":[
				0.16500002145767212,
				0.41733023524284363,
				0.41733014583587646
			],
			"min":[
				-0.16500002145767212,
				-0.41733020544052124,
				-0.41733020544052124
			],
			"type":"VEC3"
		},
		{
			"bufferView":74,
			"componentType":5126,
			"count":1116,
			"type":"VEC3"
		},
		{
			"bufferView":75,
			"componentType":5126,
			"count":1116,
			"type":"VEC2"
		},
		{
			"bufferView":76,
			"componentType":5123,
			"count":2268,
			"type":"SCALAR"
		},
		{
			"bufferView":77,
			"componentType":5126,
			"count":1116,
			"max":[
				0.16500002145767212,
				0.41733023524284363,
				0.41733014583587646
			],
			"min":[
				-0.16500002145767212,
				-0.41733020544052124,
				-0.41733020544052124
			],
			"type":"VEC3"
		},
		{
			"bufferView":78,
			"componentType":5126,
			"count":1116,
			"type":"VEC3"
		},
		{
			"bufferView":79,
			"componentType":5126,
			"count":1116,
			"type":"VEC2"
		},
		{
			"bufferView":80,
			"componentType":5123,
			"count":2268,
			"type":"SCALAR"
		}
	],
	"bufferViews":[
		{
			"buffer":0,
			"byteLength":123480,
			"byteOffset":0,
			"target":34962
		},
		{
			"buffer":0,
			"byteLength":123480,
			"byteOffset":123480,
			"target":34962
		},
		{
			"buffer":0,
			"byteLength":82320,
			"byteOffset":246960,
			"target":34962
		},
		{
			"buffer":0,
			"byteLength":30288,
			"byteOffset":329280,
			"target":34963
		},
		{
			"buffer":0,
			"byteLength":96,
			"byteOffset":359568,
			"target":34962
		},
		{
			"buffer":0,
			"byteLength":96,
			"byteOffset":359664,
			"target":34962
		},
		{
			"buffer":0,
			"byteLength":64,
			"byteOffset":359760,
			"target":34962
		},
		{
			"buffer":0,
			"byteLength":24,
			"byteOffset":359824,
			"target":34963
		},
		{
			"buffer":0,
			"byteLength":1296,
			"byteOffset":359848,
			"target":34962
		},
		{
			"buffer":0,
			"byteLength":1296,
			"byteOffset":361144,
			"target":34962
		},
		{
			"buffer":0,
			"byteLength":864,
			"byteOffset":362440,
			"target":34962
		},
		{
			"buffer":0,
			"byteLength":384,
			"byteOffset":363304,
			"target":34963
		},
		{
			"buffer":0,
			"byteLength":288,
			"byteOffset":363688,
			"target":34962
		},
		{
			"buffer":0,
			"byteLength":288,
			"byteOffset":363976,
			"target":34962
		},
		{
			"buffer":0,
			"byteLength":72,
			"byteOffset":364264,
			"target":34963
		},
		{
			"buffer":0,
			"byteLength":288,
			"byteOffset":364336,
			"target":34962
		},
		{
			"buffer":0,
			"byteLength":288,
			"byteOffset":364624,
			"target":34962
		},
		{
			"buffer":0,
			"byteLength":288,
			"byteOffset":364912,
			"target":34962
		},
		{
			"buffer":0,
			"byteLength":288,
			"byteOffset":365200,
			"target":34962
		},
		{
			"buffer":0,
			"byteLength":288,
			"byteOffset":365488,
			"target":34962
		},
		{
			"buffer":0,
			"byteLength":288,
			"byteOffset":365776,
			"target":34962
		},
		{
			"buffer":0,
			"byteLength":288,
			"byteOffset":366064,
			"target":34962
		},
		{
			"buffer":0,
			"byteLength":288,
			"byteOffset":366352,
			"target":34962
		},
		{
			"buffer":0,
			"byteLength":288,
			"byteOffset":366640,
			"target":34962
		},
		{
			"buffer":0,
			"byteLength":288,
			"byteOffset":366928,
			"target":34962
		},
		{
			"buffer":0,
			"byteLength":288,
			"byteOffset":367216,
			"target":34962
		},
		{
			"buffer":0,
			"byteLength":288,
			"byteOffset":367504,
			"target":34962
		},
		{
			"buffer":0,
			"byteLength":288,
			"byteOffset":367792,
			"target":34962
		},
		{
			"buffer":0,
			"byteLength":288,
			"byteOffset":368080,
			"target":34962
		},
		{
			"buffer":0,
			"byteLength":12456,
			"byteOffset":368368,
			"target":34962
		},
		{
			"buffer":0,
			"byteLength":12456,
			"byteOffset":380824,
			"target":34962
		},
		{
			"buffer":0,
			"byteLength":8304,
			"byteOffset":393280,
			"target":34962
		},
		{
			"buffer":0,
			"byteLength":3456,
			"byteOffset":401584,
			"target":34963
		},
		{
			"buffer":0,
			"byteLength":576,
			"byteOffset":405040,
			"target":34962
		},
		{
			"buffer":0,
			"byteLength":576,
			"byteOffset":405616,
			"target":34962
		},
		{
			"buffer":0,
			"byteLength":384,
			"byteOffset":406192,
			"target":34962
		},
		{
			"buffer":0,
			"byteLength":144,
			"byteOffset":406576,
			"target":34963
		},
		{
			"buffer":0,
			"byteLength":39120,
			"byteOffset":406720,
			"target":34962
		},
		{
			"buffer":0,
			"byteLength":39120,
			"byteOffset":445840,
			"target":34962
		},
		{
			"buffer":0,
			"byteLength":26080,
			"byteOffset":484960,
			"target":34962
		},
		{
			"buffer":0,
			"byteLength":11196,
			"byteOffset":511040,
			"target":34963
		},
		{
			"buffer":0,
			"byteLength":648,
			"byteOffset":522236,
			"target":34962
		},
		{
			"buffer":0,
			"byteLength":648,
			"byteOffset":522884,
			"target":34962
		},
		{
			"buffer":0,
			"byteLength":432,
			"byteOffset":523532,
			"target":34962
		},
		{
			"buffer":0,
			"byteLength":252,
			"byteOffset":523964,
			"target":34963
		},
		{
			"buffer":0,
			"byteLength":15240,
			"byteOffset":524216,
			"target":34962
		},
		{
			"buffer":0,
			"byteLength":15240,
			"byteOffset":539456,
			"target":34962
		},
		{
			"buffer":0,
			"byteLength":10160,
			"byteOffset":554696,
			"target":34962
		},
		{
			"buffer":0,
			"byteLength":6288,
			"byteOffset":564856,
			"target":34963
		},
		{
			"buffer":0,
			"byteLength":5448,
			"byteOffset":571144,
			"target":34962
		},
		{
			"buffer":0,
			"byteLength":5448,
			"byteOffset":576592,
			"target":34962
		},
		{
			"buffer":0,
			"byteLength":3632,
			"byteOffset":582040,
			"target":34962
		},
		{
			"buffer":0,
			"byteLength":1440,
			"byteOffset":585672,
			"target":34963
		},
		{
			"buffer":0,
			"byteLength":15336,
			"byteOffset":587112,
			"target":34962
		},
		{
			"buffer":0,
			"byteLength":15336,
			"byteOffset":602448,
			"target":34962
		},
		{
			"buffer":0,
			"byteLength":10224,
			"byteOffset":617784,
			"target":34962
		},
		{
			"buffer":0,
			"byteLength":5616,
			"byteOffset":628008,
			"target":34963
		},
		{
			"buffer":0,
			"byteLength":25440,
			"byteOffset":633624,
			"target":34962
		},
		{
			"buffer":0,
			"byteLength":25440,
			"byteOffset":659064,
			"target":34962
		},
		{
			"buffer":0,
			"byteLength":16960,
			"byteOffset":684504,
			"target":34962
		},
		{
			"buffer":0,
			"byteLength":8664,
			"byteOffset":701464,
			"target":34963
		},
		{
			"buffer":0,
			"byteLength":6912,
			"byteOffset":710128,
			"target":34962
		},
		{
			"buffer":0,
			"byteLength":6912,
			"byteOffset":717040,
			"target":34962
		},
		{
			"buffer":0,
			"byteLength":4608,
			"byteOffset":723952,
			"target":34962
		},
		{
			"buffer":0,
			"byteLength":1848,
			"byteOffset":728560,
			"target":34963
		},
		{
			"buffer":0,
			"byteLength":13392,
			"byteOffset":730408,
			"target":34962
		},
		{
			"buffer":0,
			"byteLength":13392,
			"byteOffset":743800,
			"target":34962
		},
		{
			"buffer":0,
			"byteLength":8928,
			"byteOffset":757192,
			"target":34962
		},
		{
			"buffer":0,
			"byteLength":4536,
			"byteOffset":766120,
			"target":34963
		},
		{
			"buffer":0,
			"byteLength":13392,
			"byteOffset":770656,
			"target":34962
		},
		{
			"buffer":0,
			"byteLength":13392,
			"byteOffset":784048,
			"target":34962
		},
		{
			"buffer":0,
			"byteLength":8928,
			"byteOffset":797440,
			"target":34962
		},
		{
			"buffer":0,
			"byteLength":4536,
			"byteOffset":806368,
			"target":34963
		},
		{
			"buffer":0,
			"byteLength":13392,
			"byteOffset":810904,
			"target":34962
		},
		{
			"buffer":0,
			"byteLength":13392,
			"byteOffset":824296,
			"target":34962
		},
		{
			"buffer":0,
			"byteLength":8928,
			"byteOffset":837688,
			"target":34962
		},
		{
			"buffer":0,
			"byteLength":4536,
			"byteOffset":846616,
			"target":34963
		},
		{
			"buffer":0,
			"byteLength":13392,
			"byteOffset":851152,
			"target":34962
		},
		{
			"buffer":0,
			"byteLength":13392,
			"byteOffset":864544,
			"target":34962
		},
		{
			"buffer":0,
			"byteLength":8928,
			"byteOffset":877936,
			"target":34962
		},
		{
			"buffer":0,
			"byteLength":4536,
			"byteOffset":886864,
			"target":34963
		}
	],
	"samplers":[
		{
			"magFilter":9729,
			"minFilter":9987
		}
	],
	"buffers":[
		{
			"byteLength":891400,
			"uri":"sm_jeep_turret.bin"
		}
	]
}
